# xmcd
#
# Track frame offsets: 
#        182
#        13622
#        27330
#        42695
#        57320
#        75297
#        94482
#        109240
#        124157
#        136075
#        151267
#        162980
#        176280
#        188767
#
# Disc length: 2767 seconds
#
# Revision: 2
# Processed by: cddbd v1.5.1PL2 Copyright (c) Steve Scherf et al.
# Submitted via: ExactAudioCopy v0.95b2
#
DISCID=b00acd0e
DTITLE=Various Artist - The Spirit Of America Vol. 2
DYEAR=1993
DGENRE=
TTITLE0=Marty Stuart - Matches
TTITLE1=Stacy Dean CampBell - Baby Don't You Know
TTITLE2=Joy White - Hey Hey Mama
TTITLE3=Lyle Lovett - L.A. County
TTITLE4=Desert Rose Band - Come A Little Closer
TTITLE5=Hal Ketchum - Mama Knows The Highway
TTITLE6=Matthews, Wright and King - Standing In The River (Dying Of Thir
TTITLE6=st)
TTITLE7=Gibson Miller Band - She's Gettin' A Rock
TTITLE8=Rick Vincent - Cottonwood Creek
TTITLE9=Mary Chapin Carpenter - Down At The Twist And Shout
TTITLE10=Larry Boone - One Way To Go
TTITLE11=Darryl and Don Ellis - Like A Rock To A Window
TTITLE12=Joe Diffie - If The Devil Danced (In Empty Pockets)
TTITLE13=The Flying Burrito Bros - Bon Soir Blues
EXTD=
EXTT0=
EXTT1=
EXTT2=
EXTT3=
EXTT4=
EXTT5=
EXTT6=
EXTT7=
EXTT8=
EXTT9=
EXTT10=
EXTT11=
EXTT12=
EXTT13=
PLAYORDER=
